<?xml version="1.0" encoding="UTF-8" ?>
<!DOCTYPE svg PUBLIC "-//W3C//DTD SVG 1.1//EN" "http://www.w3.org/Graphics/SVG/1.1/DTD/svg11.dtd">
<svg width="1274pt" height="539pt" viewBox="0 0 1274 539" version="1.1" xmlns="http://www.w3.org/2000/svg">
<g id="#ffffffff">
</g>
<g id="#d73936ff">
<path fill="#d73936" opacity="1.00" d=" M 210.29 0.00 L 211.83 0.00 C 220.15 8.11 228.46 16.32 237.93 23.10 C 257.55 37.80 280.30 48.16 304.09 53.93 C 312.47 55.98 321.04 56.97 329.52 58.43 C 329.52 74.23 329.96 90.28 334.47 105.54 C 338.98 121.47 347.45 136.87 360.94 146.89 C 358.38 149.10 355.83 151.30 353.26 153.49 C 340.46 148.05 328.40 140.16 319.88 129.00 C 309.32 115.81 304.39 99.03 302.92 82.41 C 271.57 75.38 241.73 61.43 216.57 41.41 C 214.63 39.91 212.86 38.22 211.16 36.46 C 207.45 40.42 203.02 43.57 198.68 46.78 C 174.68 64.20 146.93 76.28 117.93 82.39 C 114.59 107.57 107.23 132.44 94.42 154.48 C 84.22 172.20 70.68 188.02 54.52 200.56 C 52.61 201.51 53.48 203.70 53.69 205.32 C 55.73 215.42 57.40 225.63 57.74 235.95 C 58.65 267.28 50.04 298.76 33.40 325.32 C 34.40 331.28 34.42 337.45 36.87 343.09 C 42.29 357.09 52.43 368.63 63.08 378.95 C 84.92 399.15 110.34 415.31 137.34 427.69 C 149.76 433.10 162.61 438.26 176.23 439.39 C 176.79 442.06 177.22 444.75 177.41 447.48 C 160.81 447.05 144.65 442.33 129.18 436.59 C 97.06 424.10 67.17 405.64 42.09 381.95 C 24.79 365.59 10.24 346.14 0.88 324.17 C 18.86 301.11 29.63 272.37 29.95 243.05 C 30.65 224.91 26.33 207.11 21.89 189.67 C 25.13 187.25 28.59 185.13 31.91 182.82 C 54.30 167.21 71.32 144.39 80.97 118.94 C 88.53 99.66 91.36 78.98 92.67 58.43 C 96.15 57.83 99.65 57.30 103.14 56.79 C 136.33 51.80 168.13 37.49 193.64 15.64 C 199.48 10.75 204.77 5.25 210.29 0.00 Z" />
<path fill="#d73936" opacity="1.00" d=" M 203.40 78.32 C 205.45 76.21 208.00 74.67 210.32 72.87 C 204.56 96.86 200.59 121.33 200.12 146.03 C 199.73 167.08 200.08 188.20 202.84 209.09 C 211.57 274.27 234.41 336.61 243.25 401.77 C 248.50 439.44 249.28 478.06 242.28 515.54 C 230.94 522.52 219.30 529.07 207.81 535.82 C 206.80 536.71 204.51 537.15 205.22 539.00 L 204.61 539.00 C 206.36 527.93 208.61 516.94 209.79 505.78 C 214.91 463.90 213.09 421.37 206.80 379.73 C 199.76 378.33 192.84 376.40 186.02 374.20 C 154.28 363.62 124.58 346.98 98.75 325.74 C 98.65 320.46 98.61 315.17 98.44 309.89 C 129.24 330.43 165.52 341.35 201.89 346.72 C 198.11 323.41 194.02 300.14 190.51 276.77 C 165.70 266.32 142.38 252.31 121.57 235.21 C 121.47 229.92 121.35 224.63 121.19 219.34 C 141.25 232.70 163.85 241.89 187.00 248.31 C 184.24 221.04 184.05 193.55 185.90 166.22 C 175.87 160.06 166.25 153.23 157.04 145.91 C 156.24 145.15 154.99 144.44 155.15 143.14 C 154.83 138.27 154.97 133.39 154.89 128.52 C 165.33 135.51 176.49 141.40 188.11 146.19 C 190.86 125.01 195.23 104.03 201.47 83.60 C 202.04 81.82 202.48 79.96 203.40 78.32 Z" />
</g>
<g id="#000000ff">
<path fill="#000000" opacity="1.00" d=" M 750.18 136.14 C 756.44 134.99 763.14 136.15 768.50 139.63 C 774.57 143.28 778.53 150.03 779.19 157.04 C 780.06 166.10 774.95 175.38 766.91 179.61 C 757.05 185.22 743.28 182.87 736.21 173.87 C 731.65 168.13 729.60 160.13 731.84 153.03 C 734.13 144.53 741.61 137.88 750.18 136.14 Z" />
<path fill="#000000" opacity="1.00" d=" M 336.03 204.82 C 346.26 203.24 356.66 203.34 366.97 203.79 C 381.36 204.92 396.57 209.50 406.25 220.81 C 414.93 230.72 417.53 244.25 418.10 257.03 C 418.16 282.69 418.03 308.35 418.17 334.01 C 418.33 343.11 418.55 352.34 420.82 361.20 C 409.96 361.12 399.09 361.20 388.23 361.17 C 386.08 356.53 384.01 351.86 381.63 347.34 C 369.81 358.08 354.05 364.70 337.97 364.34 C 324.09 364.89 309.81 359.95 299.98 349.98 C 290.35 340.39 285.79 326.43 286.53 312.99 C 286.47 300.86 291.70 288.78 300.86 280.78 C 312.31 270.46 327.93 266.56 342.89 265.02 C 354.79 264.29 366.70 263.73 378.63 263.59 C 379.00 255.23 377.61 245.87 370.99 240.06 C 362.61 232.76 350.69 232.40 340.20 233.57 C 329.21 234.84 318.60 238.70 309.15 244.41 C 304.92 236.38 300.85 228.25 296.57 220.25 C 308.41 212.34 321.91 206.84 336.03 204.82 M 358.04 290.99 C 349.19 291.02 339.69 291.86 332.21 297.04 C 323.80 303.07 323.25 315.91 328.59 324.13 C 332.97 330.84 341.33 333.57 349.00 333.76 C 359.64 334.16 370.71 330.95 378.68 323.69 C 378.56 312.55 378.65 301.40 378.63 290.26 C 371.76 290.28 364.89 290.47 358.04 290.99 Z" />
<path fill="#000000" opacity="1.00" d=" M 489.61 209.52 C 504.17 203.35 520.33 202.47 535.88 204.22 C 546.16 205.74 556.47 208.52 565.36 214.08 C 565.12 224.61 565.20 235.14 564.89 245.67 C 553.87 237.15 539.89 232.75 525.98 233.13 C 513.96 232.88 501.88 237.83 493.71 246.70 C 482.48 258.63 478.73 276.16 481.11 292.05 C 482.71 305.91 489.67 319.91 502.04 327.11 C 512.30 333.28 524.79 333.91 536.38 332.28 C 545.58 330.89 554.18 327.02 562.19 322.43 C 565.44 330.90 568.68 339.38 571.90 347.86 C 558.69 356.45 543.50 361.78 527.92 363.86 C 508.84 365.85 488.50 362.66 472.57 351.42 C 458.58 341.63 448.90 326.40 444.77 309.93 C 439.13 288.01 440.80 263.73 451.72 243.67 C 459.90 228.35 473.53 216.08 489.61 209.52 Z" />
<path fill="#000000" opacity="1.00" d=" M 610.38 220.35 C 624.86 208.81 643.57 202.93 662.02 203.49 C 676.74 203.37 691.75 206.46 704.53 213.96 C 704.35 224.52 704.19 235.07 704.10 245.63 C 693.27 237.34 679.66 232.91 666.04 233.13 C 654.18 232.76 642.08 237.22 633.82 245.84 C 622.82 256.67 618.61 272.93 619.96 288.00 C 620.66 301.77 626.29 315.96 637.46 324.53 C 645.27 330.49 655.27 333.31 665.05 332.97 C 677.97 333.46 690.46 328.86 701.46 322.40 C 704.64 330.90 707.83 339.40 711.16 347.85 C 697.88 356.47 682.59 361.84 666.91 363.89 C 649.07 365.66 630.21 363.06 614.81 353.40 C 600.64 344.73 590.38 330.48 585.39 314.74 C 580.02 297.77 579.24 279.28 583.70 262.02 C 587.92 245.80 597.17 230.77 610.38 220.35 Z" />
<path fill="#000000" opacity="1.00" d=" M 864.04 204.15 C 880.23 202.25 897.11 204.00 911.98 210.97 C 921.87 215.73 931.02 222.50 937.43 231.52 C 946.99 244.34 951.67 260.21 952.80 276.02 C 953.95 291.67 951.61 307.76 945.07 322.09 C 938.51 336.51 926.85 348.42 912.90 355.82 C 896.39 364.29 877.04 366.13 858.91 362.97 C 841.84 359.97 825.54 351.02 815.01 337.09 C 803.57 322.40 798.39 303.49 798.63 285.03 C 798.34 266.98 803.30 248.63 813.82 233.84 C 825.33 217.36 844.22 206.72 864.04 204.15 M 867.55 234.74 C 861.49 235.98 855.65 238.78 851.35 243.30 C 842.21 252.30 838.98 265.54 838.20 277.96 C 837.38 293.38 839.49 310.14 849.60 322.46 C 861.30 336.91 885.35 338.64 898.93 325.92 C 907.60 317.68 911.37 305.66 912.69 294.07 C 913.25 284.65 913.50 275.06 911.27 265.82 C 909.03 256.23 904.41 246.73 896.36 240.73 C 888.29 234.46 877.40 233.00 867.55 234.74 Z" />
<path fill="#000000" opacity="1.00" d=" M 1056.46 204.24 C 1068.40 202.61 1081.19 203.06 1091.98 208.99 C 1102.28 214.12 1109.69 223.92 1113.21 234.73 C 1116.82 245.08 1116.87 256.18 1116.85 267.01 C 1116.85 298.40 1116.85 329.79 1116.85 361.18 C 1103.87 361.15 1090.88 361.17 1077.90 361.17 C 1077.85 329.77 1077.95 298.37 1077.85 266.97 C 1077.64 258.20 1076.32 248.53 1069.96 241.95 C 1063.87 236.08 1054.63 236.04 1046.81 237.48 C 1035.16 239.82 1024.63 246.01 1015.37 253.28 C 1015.43 289.25 1015.36 325.22 1015.40 361.20 C 1002.50 361.14 989.60 361.16 976.70 361.19 C 976.72 309.74 976.71 258.30 976.71 206.86 C 987.66 206.86 998.61 206.91 1009.56 206.83 C 1011.08 212.47 1012.42 218.15 1013.96 223.79 C 1026.46 214.31 1040.78 206.59 1056.46 204.24 Z" />
<path fill="#000000" opacity="1.00" d=" M 1149.27 220.47 C 1165.38 208.95 1185.38 203.55 1205.06 203.56 C 1218.80 203.13 1233.06 204.20 1245.54 210.45 C 1255.55 215.37 1263.45 224.35 1266.97 234.95 C 1270.98 245.82 1270.66 257.58 1270.68 269.00 C 1270.71 287.01 1270.62 305.02 1270.72 323.03 C 1271.30 335.76 1270.43 348.65 1273.34 361.17 C 1262.56 361.18 1251.77 361.14 1240.99 361.19 C 1238.80 356.53 1236.61 351.88 1234.36 347.26 C 1218.10 362.58 1193.67 368.31 1172.31 361.85 C 1158.82 357.71 1147.32 347.28 1142.43 333.98 C 1139.44 325.71 1138.25 316.68 1139.56 307.96 C 1140.74 296.29 1147.04 285.30 1156.48 278.34 C 1167.79 269.77 1182.05 266.39 1195.93 264.98 C 1207.69 264.32 1219.45 263.69 1231.24 263.61 C 1231.16 257.35 1231.22 250.68 1227.80 245.18 C 1223.45 237.52 1214.54 233.89 1206.12 233.24 C 1190.67 232.19 1175.05 236.33 1161.88 244.40 C 1157.61 236.45 1153.71 228.32 1149.27 220.47 M 1208.96 291.06 C 1202.07 290.98 1195.07 291.97 1188.74 294.79 C 1183.87 296.92 1179.83 301.18 1178.54 306.41 C 1177.33 312.90 1177.88 320.25 1182.30 325.50 C 1187.25 331.57 1195.39 333.86 1202.97 333.79 C 1213.12 333.96 1223.36 330.61 1231.17 324.04 C 1231.21 312.77 1231.20 301.50 1231.18 290.23 C 1223.76 290.27 1216.35 290.60 1208.96 291.06 Z" />
<path fill="#000000" opacity="1.00" d=" M 735.64 206.85 C 748.53 206.89 761.42 206.88 774.32 206.85 C 774.33 258.30 774.30 309.75 774.33 361.20 C 761.43 361.14 748.53 361.16 735.63 361.19 C 735.63 309.74 735.63 258.30 735.64 206.85 Z" />
</g>
</svg>
